<svg width="37" height="37" viewBox="0 0 37 37" fill="none" xmlns="http://www.w3.org/2000/svg">
<path d="M31.6268 19.2516L21.5018 29.3766C21.2907 29.5877 21.0044 29.7063 20.7059 29.7063C20.4073 29.7063 20.121 29.5877 19.9099 29.3766C19.6988 29.1656 19.5802 28.8792 19.5802 28.5807C19.5802 28.2822 19.6988 27.9959 19.9099 27.7848L28.1154 19.5807H6.08087C5.7825 19.5807 5.49636 19.4622 5.28538 19.2512C5.0744 19.0402 4.95587 18.7541 4.95587 18.4557C4.95587 18.1573 5.0744 17.8712 5.28538 17.6602C5.49636 17.4492 5.7825 17.3307 6.08087 17.3307H28.1154L19.9099 9.12664C19.6988 8.91555 19.5802 8.62924 19.5802 8.3307C19.5802 8.03217 19.6988 7.74586 19.9099 7.53477C20.121 7.32367 20.4073 7.20508 20.7059 7.20508C21.0044 7.20508 21.2907 7.32367 21.5018 7.53477L31.6268 17.6598C31.7314 17.7642 31.8144 17.8883 31.871 18.0249C31.9276 18.1615 31.9568 18.3079 31.9568 18.4557C31.9568 18.6035 31.9276 18.7499 31.871 18.8865C31.8144 19.0231 31.7314 19.1472 31.6268 19.2516Z" fill="#F0F0F0"/>
</svg>
