<svg width="51" height="52" viewBox="0 0 51 52" fill="none" xmlns="http://www.w3.org/2000/svg">
<path d="M35.4203 17.2496L35.4203 31.5685C35.4203 31.867 35.3017 32.1533 35.0906 32.3644C34.8795 32.5755 34.5932 32.6941 34.2946 32.6941C33.9961 32.6941 33.7098 32.5755 33.4987 32.3644C33.2876 32.1533 33.169 31.867 33.169 31.5685L33.17 19.9652L17.5892 35.546C17.3783 35.757 17.0921 35.8755 16.7937 35.8755C16.4954 35.8755 16.2092 35.7569 15.9982 35.546C15.7873 35.335 15.6687 35.0488 15.6687 34.7505C15.6687 34.4521 15.7873 34.166 15.9982 33.955L31.579 18.3742L19.9757 18.3752C19.6772 18.3752 19.3909 18.2566 19.1798 18.0455C18.9687 17.8344 18.8501 17.5481 18.8501 17.2496C18.8501 16.951 18.9687 16.6647 19.1798 16.4536C19.3909 16.2425 19.6772 16.124 19.9757 16.124L34.2946 16.124C34.4425 16.1239 34.5889 16.1529 34.7255 16.2095C34.8621 16.266 34.9862 16.3489 35.0908 16.4535C35.1953 16.558 35.2782 16.6821 35.3347 16.8187C35.3913 16.9553 35.4203 17.1017 35.4203 17.2496Z" fill="#F0F0F0"/>
</svg>
