<svg width="70" height="70" viewBox="0 0 70 70" fill="none" xmlns="http://www.w3.org/2000/svg">
<path d="M15.9521 27.7977L7.20211 19.0477C6.99873 18.8445 6.83738 18.6032 6.72729 18.3377C6.61721 18.0721 6.56055 17.7875 6.56055 17.5C6.56055 17.2125 6.61721 16.9279 6.72729 16.6623C6.83738 16.3968 6.99873 16.1555 7.20211 15.9523L15.9521 7.20234C16.3626 6.79188 16.9193 6.56128 17.4998 6.56128C18.0803 6.56128 18.637 6.79188 19.0474 7.20234C19.4579 7.6128 19.6885 8.16951 19.6885 8.75C19.6885 9.33048 19.4579 9.88719 19.0474 10.2977L11.8423 17.5L19.0474 24.7023C19.4579 25.1128 19.6885 25.6695 19.6885 26.25C19.6885 26.8305 19.4579 27.3872 19.0474 27.7977C18.637 28.2081 18.0803 28.4387 17.4998 28.4387C16.9193 28.4387 16.3626 28.2081 15.9521 27.7977ZM26.8896 27.7977C27.0928 28.001 27.334 28.1624 27.5996 28.2725C27.8651 28.3826 28.1498 28.4392 28.4373 28.4392C28.7247 28.4392 29.0094 28.3826 29.2749 28.2725C29.5405 28.1624 29.7818 28.001 29.9849 27.7977L38.7349 19.0477C38.9383 18.8445 39.0997 18.6032 39.2097 18.3377C39.3198 18.0721 39.3765 17.7875 39.3765 17.5C39.3765 17.2125 39.3198 16.9279 39.2097 16.6623C39.0997 16.3968 38.9383 16.1555 38.7349 15.9523L29.9849 7.20234C29.5745 6.79188 29.0178 6.56128 28.4373 6.56128C27.8568 6.56128 27.3001 6.79188 26.8896 7.20234C26.4791 7.6128 26.2486 8.16951 26.2486 8.75C26.2486 9.33048 26.4791 9.88719 26.8896 10.2977L34.0947 17.5L26.8896 24.7023C26.6862 24.9055 26.5249 25.1468 26.4148 25.4123C26.3047 25.6779 26.248 25.9625 26.248 26.25C26.248 26.5375 26.3047 26.8221 26.4148 27.0877C26.5249 27.3532 26.6862 27.5945 26.8896 27.7977ZM54.6873 10.9375H48.1248C47.5446 10.9375 46.9882 11.168 46.578 11.5782C46.1677 11.9884 45.9373 12.5448 45.9373 13.125C45.9373 13.7052 46.1677 14.2616 46.578 14.6718C46.9882 15.082 47.5446 15.3125 48.1248 15.3125H54.6873V54.6875H15.3123V37.1875C15.3123 36.6073 15.0818 36.0509 14.6716 35.6407C14.2613 35.2305 13.7049 35 13.1248 35C12.5446 35 11.9882 35.2305 11.578 35.6407C11.1677 36.0509 10.9373 36.6073 10.9373 37.1875V54.6875C10.9373 55.8478 11.3982 56.9606 12.2187 57.7811C13.0391 58.6016 14.1519 59.0625 15.3123 59.0625H54.6873C55.8476 59.0625 56.9604 58.6016 57.7809 57.7811C58.6013 56.9606 59.0623 55.8478 59.0623 54.6875V15.3125C59.0623 14.1522 58.6013 13.0394 57.7809 12.2189C56.9604 11.3984 55.8476 10.9375 54.6873 10.9375Z" fill="#F0F0F0"/>
</svg>
