<svg width="70" height="70" viewBox="0 0 70 70" fill="none" xmlns="http://www.w3.org/2000/svg">
<path d="M63.3418 53.1974L54.2664 10.0489C54.149 9.48468 53.9213 8.94917 53.5964 8.47318C53.2714 7.99719 52.8556 7.59009 52.3728 7.27528C51.8901 6.96047 51.3499 6.74414 50.7833 6.63874C50.2166 6.53333 49.6348 6.54091 49.0711 6.66105L36.2715 9.41183C35.1393 9.65973 34.1508 10.3446 33.521 11.3175C32.8911 12.2905 32.6709 13.4727 32.9082 14.6071L41.9836 57.7556C42.1858 58.74 42.7209 59.6248 43.4987 60.2612C44.2765 60.8976 45.2497 61.2468 46.2547 61.2501C46.5654 61.2497 46.8751 61.2167 47.1789 61.1517L59.9785 58.4009C61.1121 58.1524 62.1015 57.4662 62.7315 56.4916C63.3614 55.517 63.5807 54.333 63.3418 53.1974ZM37.1875 13.713C37.1875 13.6966 37.1875 13.6884 37.1875 13.6884L49.9844 10.954L50.8949 15.2935L38.098 18.047L37.1875 13.713ZM38.9977 22.3181L51.8 19.57L52.7133 23.9177L39.9219 26.6685L38.9977 22.3181ZM40.8133 30.9505L53.6156 28.1997L57.2523 45.4919L44.45 48.2427L40.8133 30.9505ZM59.0625 54.1243L46.2656 56.8587L45.3551 52.5193L58.152 49.7657L59.0625 54.0997C59.0625 54.1161 59.0625 54.1243 59.0625 54.1243ZM28.4375 8.75012H15.3125C14.1522 8.75012 13.0394 9.21105 12.2189 10.0315C11.3984 10.852 10.9375 11.9648 10.9375 13.1251V56.8751C10.9375 58.0354 11.3984 59.1482 12.2189 59.9687C13.0394 60.7892 14.1522 61.2501 15.3125 61.2501H28.4375C29.5978 61.2501 30.7106 60.7892 31.5311 59.9687C32.3516 59.1482 32.8125 58.0354 32.8125 56.8751V13.1251C32.8125 11.9648 32.3516 10.852 31.5311 10.0315C30.7106 9.21105 29.5978 8.75012 28.4375 8.75012ZM15.3125 13.1251H28.4375V17.5001H15.3125V13.1251ZM15.3125 21.8751H28.4375V48.1251H15.3125V21.8751ZM28.4375 56.8751H15.3125V52.5001H28.4375V56.8751Z" fill="#F0F0F0"/>
</svg>
