<svg width="34" height="33" viewBox="0 0 34 33" fill="none" xmlns="http://www.w3.org/2000/svg">
<g clip-path="url(#clip0_488_558)">
<g filter="url(#filter0_d_488_558)">
<path d="M25.25 10.75V15.25C25.25 17.438 24.3808 19.5365 22.8336 21.0836C21.2865 22.6308 19.188 23.5 17 23.5C14.812 23.5 12.7135 22.6308 11.1664 21.0836C9.61919 19.5365 8.75 17.438 8.75 15.25V13.75C8.75 13.3522 8.90804 12.9706 9.18934 12.6893C9.47064 12.408 9.85218 12.25 10.25 12.25C10.6478 12.25 11.0294 12.408 11.3107 12.6893C11.592 12.9706 11.75 13.3522 11.75 13.75V14.5C11.75 14.6989 11.829 14.8897 11.9697 15.0303C12.1103 15.171 12.3011 15.25 12.5 15.25C12.6989 15.25 12.8897 15.171 13.0303 15.0303C13.171 14.8897 13.25 14.6989 13.25 14.5V9.25C13.25 8.85218 13.408 8.47064 13.6893 8.18934C13.9706 7.90804 14.3522 7.75 14.75 7.75C15.1478 7.75 15.5294 7.90804 15.8107 8.18934C16.092 8.47064 16.25 8.85218 16.25 9.25V10.75C16.25 10.9489 16.329 11.1397 16.4697 11.2803C16.6103 11.421 16.8011 11.5 17 11.5C17.1989 11.5 17.3897 11.421 17.5303 11.2803C17.671 11.1397 17.75 10.9489 17.75 10.75V9.25C17.75 8.85218 17.908 8.47064 18.1893 8.18934C18.4706 7.90804 18.8522 7.75 19.25 7.75C19.6478 7.75 20.0294 7.90804 20.3107 8.18934C20.592 8.47064 20.75 8.85218 20.75 9.25V10.75C20.75 10.9489 20.829 11.1397 20.9697 11.2803C21.1103 11.421 21.3011 11.5 21.5 11.5C21.6989 11.5 21.8897 11.421 22.0303 11.2803C22.171 11.1397 22.25 10.9489 22.25 10.75C22.25 10.3522 22.408 9.97064 22.6893 9.68934C22.9706 9.40804 23.3522 9.25 23.75 9.25C24.1478 9.25 24.5294 9.40804 24.8107 9.68934C25.092 9.97064 25.25 10.3522 25.25 10.75Z" fill="#F0F0F0"/>
</g>
</g>
<defs>
<filter id="filter0_d_488_558" x="0.75" y="0.75" width="32.5" height="31.75" filterUnits="userSpaceOnUse" color-interpolation-filters="sRGB">
<feFlood flood-opacity="0" result="BackgroundImageFix"/>
<feColorMatrix in="SourceAlpha" type="matrix" values="0 0 0 0 0 0 0 0 0 0 0 0 0 0 0 0 0 0 127 0" result="hardAlpha"/>
<feOffset dy="1"/>
<feGaussianBlur stdDeviation="4"/>
<feComposite in2="hardAlpha" operator="out"/>
<feColorMatrix type="matrix" values="0 0 0 0 0.486275 0 0 0 0 0.54902 0 0 0 0 1 0 0 0 1 0"/>
<feBlend mode="normal" in2="BackgroundImageFix" result="effect1_dropShadow_488_558"/>
<feBlend mode="normal" in="SourceGraphic" in2="effect1_dropShadow_488_558" result="shape"/>
</filter>
<clipPath id="clip0_488_558">
<rect width="34" height="33" fill="white"/>
</clipPath>
</defs>
</svg>
