<svg width="70" height="70" viewBox="0 0 70 70" fill="none" xmlns="http://www.w3.org/2000/svg">
<path d="M61.2498 18.4025C61.235 17.086 60.9546 15.786 60.4256 14.5804C59.8966 13.3748 59.1297 12.2883 58.1709 11.386C54.3428 7.7548 48.1303 7.89152 44.3295 11.695L39.0467 17.0079C37.7991 15.8708 36.1613 15.2582 34.4737 15.2974C32.786 15.3366 31.1784 16.0246 29.985 17.2185L27.524 19.6794C27.1173 20.0857 26.7946 20.5682 26.5744 21.0994C26.3542 21.6305 26.2409 22.1998 26.2409 22.7747C26.2409 23.3497 26.3542 23.919 26.5744 24.4501C26.7946 24.9812 27.1173 25.4637 27.524 25.87L28.0709 26.4333L14.1256 40.3786C12.7833 41.7105 11.8117 43.3695 11.3067 45.1917C10.8018 47.014 10.7809 48.9365 11.2463 50.7692L9.05881 55.8032C8.75373 56.495 8.66541 57.2629 8.80551 58.0058C8.9456 58.7488 9.30752 59.4318 9.84358 59.9649C10.4636 60.5891 11.2583 61.0107 12.1227 61.1743C12.9872 61.3378 13.881 61.2355 14.6862 60.881L19.4768 58.7892C21.2766 59.1964 23.1504 59.1404 24.9227 58.6263C26.6949 58.1122 28.3078 57.1569 29.6104 55.8497L43.5557 41.9044L44.119 42.4677C44.9394 43.2875 46.0517 43.7481 47.2115 43.7481C48.3714 43.7481 49.4837 43.2875 50.3041 42.4677L52.7651 40.0067C53.9609 38.8117 54.6495 37.2013 54.6872 35.511C54.7249 33.8208 54.1088 32.1813 52.9674 30.9341L58.3678 25.5009C59.3014 24.5727 60.0379 23.4656 60.5332 22.2458C61.0284 21.026 61.2722 19.7187 61.2498 18.4025ZM26.5233 52.7735C25.6815 53.6171 24.6258 54.2155 23.4697 54.5045C22.3135 54.7936 21.1005 54.7623 19.9608 54.4142C19.461 54.2601 18.9227 54.2902 18.4432 54.4989L13.494 56.6618L15.5858 51.7919C15.8028 51.2944 15.8272 50.7341 15.6541 50.2196C15.2577 49.0613 15.1949 47.8149 15.4729 46.6226C15.7509 45.4303 16.3585 44.3402 17.2264 43.4767L31.1717 29.5314L40.4522 38.8282L26.5233 52.7735ZM55.2697 22.422L48.3326 29.4001C47.9235 29.8102 47.6938 30.3658 47.6938 30.945C47.6938 31.5243 47.9235 32.0799 48.3326 32.49L49.6697 33.8271C49.8731 34.0302 50.0345 34.2715 50.1446 34.537C50.2547 34.8026 50.3113 35.0872 50.3113 35.3747C50.3113 35.6622 50.2547 35.9468 50.1446 36.2124C50.0345 36.478 49.8731 36.7192 49.6697 36.9224L47.2088 39.3833L30.6248 22.7665L33.0858 20.3056C33.496 19.8957 34.0521 19.6654 34.6321 19.6654C35.212 19.6654 35.7681 19.8957 36.1783 20.3056L37.5155 21.6427C37.7187 21.8465 37.9601 22.0082 38.2259 22.1185C38.4917 22.2288 38.7767 22.2856 39.0645 22.2856C39.3523 22.2856 39.6372 22.2288 39.9031 22.1185C40.1689 22.0082 40.4103 21.8465 40.6135 21.6427L47.433 14.7821C49.5686 12.6439 53.0385 12.5454 55.1686 14.5607C55.7006 15.0632 56.1264 15.6675 56.4206 16.3376C56.7149 17.0077 56.8716 17.7301 56.8816 18.4619C56.8915 19.1937 56.7545 19.9201 56.4785 20.598C56.2026 21.2759 55.7934 21.8915 55.2752 22.4083L55.2697 22.422Z" fill="#F0F0F0"/>
</svg>
