<svg width="34" height="34" viewBox="0 0 34 34" fill="none" xmlns="http://www.w3.org/2000/svg">
<g clip-path="url(#clip0_488_567)">
<g filter="url(#filter0_d_488_567)">
<path d="M25.25 8.5V13C25.25 13.1989 25.171 13.3897 25.0303 13.5303C24.8897 13.671 24.6989 13.75 24.5 13.75C24.3011 13.75 24.1103 13.671 23.9697 13.5303C23.829 13.3897 23.75 13.1989 23.75 13V10.3103L19.7806 14.2806C19.6399 14.4214 19.449 14.5004 19.25 14.5004C19.051 14.5004 18.8601 14.4214 18.7194 14.2806C18.5786 14.1399 18.4996 13.949 18.4996 13.75C18.4996 13.551 18.5786 13.3601 18.7194 13.2194L22.6897 9.25H20C19.8011 9.25 19.6103 9.17098 19.4697 9.03033C19.329 8.88968 19.25 8.69891 19.25 8.5C19.25 8.30109 19.329 8.11032 19.4697 7.96967C19.6103 7.82902 19.8011 7.75 20 7.75H24.5C24.6989 7.75 24.8897 7.82902 25.0303 7.96967C25.171 8.11032 25.25 8.30109 25.25 8.5ZM14.2194 17.7194L10.25 21.6897V19C10.25 18.8011 10.171 18.6103 10.0303 18.4697C9.88968 18.329 9.69891 18.25 9.5 18.25C9.30109 18.25 9.11032 18.329 8.96967 18.4697C8.82902 18.6103 8.75 18.8011 8.75 19V23.5C8.75 23.6989 8.82902 23.8897 8.96967 24.0303C9.11032 24.171 9.30109 24.25 9.5 24.25H14C14.1989 24.25 14.3897 24.171 14.5303 24.0303C14.671 23.8897 14.75 23.6989 14.75 23.5C14.75 23.3011 14.671 23.1103 14.5303 22.9697C14.3897 22.829 14.1989 22.75 14 22.75H11.3103L15.2806 18.7806C15.4214 18.6399 15.5004 18.449 15.5004 18.25C15.5004 18.051 15.4214 17.8601 15.2806 17.7194C15.1399 17.5786 14.949 17.4996 14.75 17.4996C14.551 17.4996 14.3601 17.5786 14.2194 17.7194ZM24.5 18.25C24.3011 18.25 24.1103 18.329 23.9697 18.4697C23.829 18.6103 23.75 18.8011 23.75 19V21.6897L19.7806 17.7194C19.6399 17.5786 19.449 17.4996 19.25 17.4996C19.051 17.4996 18.8601 17.5786 18.7194 17.7194C18.5786 17.8601 18.4996 18.051 18.4996 18.25C18.4996 18.449 18.5786 18.6399 18.7194 18.7806L22.6897 22.75H20C19.8011 22.75 19.6103 22.829 19.4697 22.9697C19.329 23.1103 19.25 23.3011 19.25 23.5C19.25 23.6989 19.329 23.8897 19.4697 24.0303C19.6103 24.171 19.8011 24.25 20 24.25H24.5C24.6989 24.25 24.8897 24.171 25.0303 24.0303C25.171 23.8897 25.25 23.6989 25.25 23.5V19C25.25 18.8011 25.171 18.6103 25.0303 18.4697C24.8897 18.329 24.6989 18.25 24.5 18.25ZM11.3103 9.25H14C14.1989 9.25 14.3897 9.17098 14.5303 9.03033C14.671 8.88968 14.75 8.69891 14.75 8.5C14.75 8.30109 14.671 8.11032 14.5303 7.96967C14.3897 7.82902 14.1989 7.75 14 7.75H9.5C9.30109 7.75 9.11032 7.82902 8.96967 7.96967C8.82902 8.11032 8.75 8.30109 8.75 8.5V13C8.75 13.1989 8.82902 13.3897 8.96967 13.5303C9.11032 13.671 9.30109 13.75 9.5 13.75C9.69891 13.75 9.88968 13.671 10.0303 13.5303C10.171 13.3897 10.25 13.1989 10.25 13V10.3103L14.2194 14.2806C14.3601 14.4214 14.551 14.5004 14.75 14.5004C14.949 14.5004 15.1399 14.4214 15.2806 14.2806C15.4214 14.1399 15.5004 13.949 15.5004 13.75C15.5004 13.551 15.4214 13.3601 15.2806 13.2194L11.3103 9.25Z" fill="#F0F0F0"/>
</g>
</g>
<defs>
<filter id="filter0_d_488_567" x="0.75" y="0.75" width="32.5" height="32.5" filterUnits="userSpaceOnUse" color-interpolation-filters="sRGB">
<feFlood flood-opacity="0" result="BackgroundImageFix"/>
<feColorMatrix in="SourceAlpha" type="matrix" values="0 0 0 0 0 0 0 0 0 0 0 0 0 0 0 0 0 0 127 0" result="hardAlpha"/>
<feOffset dy="1"/>
<feGaussianBlur stdDeviation="4"/>
<feComposite in2="hardAlpha" operator="out"/>
<feColorMatrix type="matrix" values="0 0 0 0 0.486275 0 0 0 0 0.54902 0 0 0 0 1 0 0 0 1 0"/>
<feBlend mode="normal" in2="BackgroundImageFix" result="effect1_dropShadow_488_567"/>
<feBlend mode="normal" in="SourceGraphic" in2="effect1_dropShadow_488_567" result="shape"/>
</filter>
<clipPath id="clip0_488_567">
<rect width="34" height="34" fill="white"/>
</clipPath>
</defs>
</svg>
