<svg width="70" height="70" viewBox="0 0 70 70" fill="none" xmlns="http://www.w3.org/2000/svg">
<path d="M35 21.875C32.4041 21.875 29.8665 22.6448 27.7081 24.087C25.5497 25.5292 23.8675 27.579 22.8741 29.9773C21.8807 32.3756 21.6208 35.0146 22.1272 37.5606C22.6336 40.1066 23.8837 42.4452 25.7192 44.2808C27.5548 46.1163 29.8934 47.3664 32.4394 47.8728C34.9854 48.3792 37.6244 48.1193 40.0227 47.1259C42.421 46.1325 44.4708 44.4503 45.913 42.2919C47.3552 40.1335 48.125 37.5959 48.125 35C48.1214 31.5201 46.7374 28.1839 44.2768 25.7232C41.8162 23.2626 38.4799 21.8786 35 21.875ZM35 43.75C33.2694 43.75 31.5777 43.2368 30.1388 42.2754C28.6998 41.3139 27.5783 39.9473 26.9161 38.3485C26.2538 36.7496 26.0805 34.9903 26.4181 33.293C26.7558 31.5956 27.5891 30.0365 28.8128 28.8128C30.0365 27.5891 31.5956 26.7558 33.293 26.4181C34.9903 26.0805 36.7496 26.2538 38.3485 26.9161C39.9473 27.5783 41.3139 28.6998 42.2754 30.1388C43.2368 31.5777 43.75 33.2694 43.75 35C43.75 37.3206 42.8281 39.5462 41.1872 41.1872C39.5462 42.8281 37.3206 43.75 35 43.75ZM59.0625 35.5906C59.0734 35.1969 59.0734 34.8031 59.0625 34.4094L63.1422 29.3125C63.3561 29.0449 63.5042 28.7308 63.5745 28.3955C63.6448 28.0602 63.6353 27.713 63.5469 27.382C62.8781 24.8681 61.8776 22.4543 60.5719 20.2043C60.4009 19.9099 60.1636 19.6594 59.8787 19.4728C59.5939 19.2863 59.2695 19.1688 58.9313 19.1297L52.4453 18.4078C52.1755 18.1234 51.9021 17.85 51.625 17.5875L50.8594 11.0852C50.82 10.7467 50.7021 10.4221 50.515 10.1372C50.328 9.85239 50.077 9.61519 49.782 9.44453C47.5312 8.14119 45.1176 7.14174 42.6043 6.47227C42.2731 6.38421 41.9258 6.37521 41.5905 6.44598C41.2552 6.51674 40.9412 6.66531 40.6738 6.87969L35.5906 10.9375C35.1969 10.9375 34.8031 10.9375 34.4094 10.9375L29.3125 6.86602C29.0449 6.6521 28.7308 6.50404 28.3955 6.43374C28.0602 6.36345 27.713 6.3729 27.382 6.46133C24.8685 7.13133 22.4548 8.13171 20.2043 9.43633C19.9099 9.6073 19.6594 9.84464 19.4728 10.1295C19.2863 10.4143 19.1688 10.7387 19.1297 11.077L18.4078 17.5738C18.1234 17.8454 17.85 18.1189 17.5875 18.3941L11.0852 19.1406C10.7467 19.18 10.4221 19.2979 10.1372 19.485C9.85239 19.672 9.61519 19.923 9.44453 20.218C8.14119 22.4688 7.14174 24.8824 6.47227 27.3957C6.38421 27.7269 6.37521 28.0742 6.44598 28.4095C6.51674 28.7448 6.66531 29.0588 6.87969 29.3262L10.9375 34.4094C10.9375 34.8031 10.9375 35.1969 10.9375 35.5906L6.86602 40.6875C6.6521 40.9551 6.50404 41.2692 6.43374 41.6045C6.36345 41.9398 6.3729 42.287 6.46133 42.618C7.13013 45.132 8.13058 47.5457 9.43633 49.7957C9.6073 50.0902 9.84464 50.3406 10.1295 50.5272C10.4143 50.7137 10.7387 50.8312 11.077 50.8703L17.5629 51.5922C17.8345 51.8766 18.1079 52.15 18.3832 52.4125L19.1406 58.9148C19.18 59.2533 19.2979 59.5779 19.485 59.8628C19.672 60.1476 19.923 60.3848 20.218 60.5555C22.4688 61.8588 24.8824 62.8583 27.3957 63.5277C27.7269 63.6158 28.0742 63.6248 28.4095 63.554C28.7448 63.4833 29.0588 63.3347 29.3262 63.1203L34.4094 59.0625C34.8031 59.0734 35.1969 59.0734 35.5906 59.0625L40.6875 63.1422C40.9551 63.3561 41.2692 63.5042 41.6045 63.5745C41.9398 63.6448 42.287 63.6353 42.618 63.5469C45.132 62.8781 47.5457 61.8776 49.7957 60.5719C50.0902 60.4009 50.3406 60.1636 50.5272 59.8787C50.7137 59.5939 50.8312 59.2695 50.8703 58.9313L51.5922 52.4453C51.8766 52.1755 52.15 51.9021 52.4125 51.625L58.9148 50.8594C59.2533 50.82 59.5779 50.7021 59.8628 50.515C60.1476 50.328 60.3848 50.077 60.5555 49.782C61.8588 47.5312 62.8583 45.1176 63.5277 42.6043C63.6158 42.2731 63.6248 41.9258 63.554 41.5905C63.4833 41.2552 63.3347 40.9412 63.1203 40.6738L59.0625 35.5906ZM54.6602 33.8133C54.7066 34.6037 54.7066 35.3963 54.6602 36.1867C54.6276 36.7279 54.7971 37.2619 55.1359 37.6852L59.016 42.5332C58.5708 43.9482 58.0007 45.3207 57.3125 46.6348L51.1328 47.3348C50.5946 47.3945 50.0978 47.6517 49.7383 48.0566C49.2119 48.6486 48.6513 49.2092 48.0594 49.7355C47.6545 50.095 47.3972 50.5919 47.3375 51.1301L46.6512 57.3043C45.3373 57.9928 43.9647 58.5629 42.5496 59.0078L37.6988 55.1277C37.3107 54.8176 36.8285 54.6488 36.3316 54.6492H36.2004C35.4099 54.6957 34.6174 54.6957 33.827 54.6492C33.2858 54.6166 32.7518 54.7862 32.3285 55.125L27.4668 59.0078C26.0519 58.5626 24.6793 57.9925 23.3652 57.3043L22.6652 51.1328C22.6055 50.5946 22.3483 50.0978 21.9434 49.7383C21.3514 49.2119 20.7908 48.6513 20.2645 48.0594C19.905 47.6545 19.4081 47.3972 18.8699 47.3375L12.6957 46.6484C12.0072 45.3346 11.4371 43.962 10.9922 42.5469L14.8723 37.6961C15.2111 37.2728 15.3806 36.7388 15.3481 36.1977C15.3016 35.4072 15.3016 34.6147 15.3481 33.8242C15.3806 33.283 15.2111 32.749 14.8723 32.3258L10.9922 27.4668C11.4374 26.0519 12.0075 24.6793 12.6957 23.3652L18.8672 22.6652C19.4054 22.6055 19.9022 22.3483 20.2617 21.9434C20.7881 21.3514 21.3487 20.7908 21.9406 20.2645C22.3472 19.9047 22.6054 19.4067 22.6652 18.8672L23.3516 12.6957C24.6654 12.0072 26.0381 11.4371 27.4531 10.9922L32.3039 14.8723C32.7272 15.2111 33.2612 15.3806 33.8023 15.3481C34.5928 15.3016 35.3853 15.3016 36.1758 15.3481C36.717 15.3806 37.251 15.2111 37.6742 14.8723L42.5332 10.9922C43.9482 11.4374 45.3207 12.0075 46.6348 12.6957L47.3348 18.8672C47.3945 19.4054 47.6517 19.9022 48.0566 20.2617C48.6486 20.7881 49.2092 21.3487 49.7355 21.9406C50.095 22.3456 50.5919 22.6028 51.1301 22.6625L57.3043 23.3488C57.9928 24.6627 58.5629 26.0353 59.0078 27.4504L55.1277 32.3012C54.7857 32.728 54.6159 33.2675 54.652 33.8133H54.6602Z" fill="#F0F0F0"/>
</svg>
