<svg width="28" height="34" viewBox="0 0 28 34" fill="none" xmlns="http://www.w3.org/2000/svg">
<g clip-path="url(#clip0_488_564)">
<g filter="url(#filter0_d_488_564)">
<path d="M19.25 23.5C19.25 23.6989 19.171 23.8897 19.0303 24.0303C18.8897 24.171 18.6989 24.25 18.5 24.25H17C16.4178 24.25 15.8437 24.1145 15.3229 23.8541C14.8022 23.5937 14.3493 23.2157 14 22.75C13.6507 23.2157 13.1978 23.5937 12.6771 23.8541C12.1563 24.1145 11.5822 24.25 11 24.25H9.5C9.30109 24.25 9.11032 24.171 8.96967 24.0303C8.82902 23.8897 8.75 23.6989 8.75 23.5C8.75 23.3011 8.82902 23.1103 8.96967 22.9697C9.11032 22.829 9.30109 22.75 9.5 22.75H11C11.5967 22.75 12.169 22.5129 12.591 22.091C13.0129 21.669 13.25 21.0967 13.25 20.5V16.75H11.75C11.5511 16.75 11.3603 16.671 11.2197 16.5303C11.079 16.3897 11 16.1989 11 16C11 15.8011 11.079 15.6103 11.2197 15.4697C11.3603 15.329 11.5511 15.25 11.75 15.25H13.25V11.5C13.25 10.9033 13.0129 10.331 12.591 9.90901C12.169 9.48705 11.5967 9.25 11 9.25H9.5C9.30109 9.25 9.11032 9.17098 8.96967 9.03033C8.82902 8.88968 8.75 8.69891 8.75 8.5C8.75 8.30109 8.82902 8.11032 8.96967 7.96967C9.11032 7.82902 9.30109 7.75 9.5 7.75H11C11.5822 7.75 12.1563 7.88554 12.6771 8.1459C13.1978 8.40625 13.6507 8.78426 14 9.25C14.3493 8.78426 14.8022 8.40625 15.3229 8.1459C15.8437 7.88554 16.4178 7.75 17 7.75H18.5C18.6989 7.75 18.8897 7.82902 19.0303 7.96967C19.171 8.11032 19.25 8.30109 19.25 8.5C19.25 8.69891 19.171 8.88968 19.0303 9.03033C18.8897 9.17098 18.6989 9.25 18.5 9.25H17C16.4033 9.25 15.831 9.48705 15.409 9.90901C14.9871 10.331 14.75 10.9033 14.75 11.5V15.25H16.25C16.4489 15.25 16.6397 15.329 16.7803 15.4697C16.921 15.6103 17 15.8011 17 16C17 16.1989 16.921 16.3897 16.7803 16.5303C16.6397 16.671 16.4489 16.75 16.25 16.75H14.75V20.5C14.75 21.0967 14.9871 21.669 15.409 22.091C15.831 22.5129 16.4033 22.75 17 22.75H18.5C18.6989 22.75 18.8897 22.829 19.0303 22.9697C19.171 23.1103 19.25 23.3011 19.25 23.5Z" fill="#F0F0F0"/>
</g>
</g>
<defs>
<filter id="filter0_d_488_564" x="0.75" y="0.75" width="26.5" height="32.5" filterUnits="userSpaceOnUse" color-interpolation-filters="sRGB">
<feFlood flood-opacity="0" result="BackgroundImageFix"/>
<feColorMatrix in="SourceAlpha" type="matrix" values="0 0 0 0 0 0 0 0 0 0 0 0 0 0 0 0 0 0 127 0" result="hardAlpha"/>
<feOffset dy="1"/>
<feGaussianBlur stdDeviation="4"/>
<feComposite in2="hardAlpha" operator="out"/>
<feColorMatrix type="matrix" values="0 0 0 0 0.486275 0 0 0 0 0.54902 0 0 0 0 1 0 0 0 1 0"/>
<feBlend mode="normal" in2="BackgroundImageFix" result="effect1_dropShadow_488_564"/>
<feBlend mode="normal" in="SourceGraphic" in2="effect1_dropShadow_488_564" result="shape"/>
</filter>
<clipPath id="clip0_488_564">
<rect width="28" height="34" fill="white"/>
</clipPath>
</defs>
</svg>
