<svg width="70" height="70" viewBox="0 0 70 70" fill="none" xmlns="http://www.w3.org/2000/svg">
<path d="M37.1875 32.8125V59.0625C37.1875 59.6427 36.957 60.1991 36.5468 60.6093C36.1366 61.0195 35.5802 61.25 35 61.25C34.4198 61.25 33.8634 61.0195 33.4532 60.6093C33.043 60.1991 32.8125 59.6427 32.8125 59.0625V32.8125C32.8125 32.2323 33.043 31.6759 33.4532 31.2657C33.8634 30.8555 34.4198 30.625 35 30.625C35.5802 30.625 36.1366 30.8555 36.5468 31.2657C36.957 31.6759 37.1875 32.2323 37.1875 32.8125ZM54.6875 52.5C54.1073 52.5 53.5509 52.7305 53.1407 53.1407C52.7305 53.5509 52.5 54.1073 52.5 54.6875V59.0625C52.5 59.6427 52.7305 60.1991 53.1407 60.6093C53.5509 61.0195 54.1073 61.25 54.6875 61.25C55.2677 61.25 55.8241 61.0195 56.2343 60.6093C56.6445 60.1991 56.875 59.6427 56.875 59.0625V54.6875C56.875 54.1073 56.6445 53.5509 56.2343 53.1407C55.8241 52.7305 55.2677 52.5 54.6875 52.5ZM61.25 43.75H56.875V10.9375C56.875 10.3573 56.6445 9.80094 56.2343 9.3907C55.8241 8.98047 55.2677 8.75 54.6875 8.75C54.1073 8.75 53.5509 8.98047 53.1407 9.3907C52.7305 9.80094 52.5 10.3573 52.5 10.9375V43.75H48.125C47.5448 43.75 46.9884 43.9805 46.5782 44.3907C46.168 44.8009 45.9375 45.3573 45.9375 45.9375C45.9375 46.5177 46.168 47.0741 46.5782 47.4843C46.9884 47.8945 47.5448 48.125 48.125 48.125H61.25C61.8302 48.125 62.3866 47.8945 62.7968 47.4843C63.207 47.0741 63.4375 46.5177 63.4375 45.9375C63.4375 45.3573 63.207 44.8009 62.7968 44.3907C62.3866 43.9805 61.8302 43.75 61.25 43.75ZM15.3125 43.75C14.7323 43.75 14.1759 43.9805 13.7657 44.3907C13.3555 44.8009 13.125 45.3573 13.125 45.9375V59.0625C13.125 59.6427 13.3555 60.1991 13.7657 60.6093C14.1759 61.0195 14.7323 61.25 15.3125 61.25C15.8927 61.25 16.4491 61.0195 16.8593 60.6093C17.2695 60.1991 17.5 59.6427 17.5 59.0625V45.9375C17.5 45.3573 17.2695 44.8009 16.8593 44.3907C16.4491 43.9805 15.8927 43.75 15.3125 43.75ZM21.875 35H17.5V10.9375C17.5 10.3573 17.2695 9.80094 16.8593 9.3907C16.4491 8.98047 15.8927 8.75 15.3125 8.75C14.7323 8.75 14.1759 8.98047 13.7657 9.3907C13.3555 9.80094 13.125 10.3573 13.125 10.9375V35H8.75C8.16984 35 7.61344 35.2305 7.2032 35.6407C6.79297 36.0509 6.5625 36.6073 6.5625 37.1875C6.5625 37.7677 6.79297 38.3241 7.2032 38.7343C7.61344 39.1445 8.16984 39.375 8.75 39.375H21.875C22.4552 39.375 23.0116 39.1445 23.4218 38.7343C23.832 38.3241 24.0625 37.7677 24.0625 37.1875C24.0625 36.6073 23.832 36.0509 23.4218 35.6407C23.0116 35.2305 22.4552 35 21.875 35ZM41.5625 21.875H37.1875V10.9375C37.1875 10.3573 36.957 9.80094 36.5468 9.3907C36.1366 8.98047 35.5802 8.75 35 8.75C34.4198 8.75 33.8634 8.98047 33.4532 9.3907C33.043 9.80094 32.8125 10.3573 32.8125 10.9375V21.875H28.4375C27.8573 21.875 27.3009 22.1055 26.8907 22.5157C26.4805 22.9259 26.25 23.4823 26.25 24.0625C26.25 24.6427 26.4805 25.1991 26.8907 25.6093C27.3009 26.0195 27.8573 26.25 28.4375 26.25H41.5625C42.1427 26.25 42.6991 26.0195 43.1093 25.6093C43.5195 25.1991 43.75 24.6427 43.75 24.0625C43.75 23.4823 43.5195 22.9259 43.1093 22.5157C42.6991 22.1055 42.1427 21.875 41.5625 21.875Z" fill="#F0F0F0"/>
</svg>
