<svg width="31" height="31" viewBox="0 0 31 31" fill="none" xmlns="http://www.w3.org/2000/svg">
<g clip-path="url(#clip0_486_555)">
<g filter="url(#filter0_d_486_555)">
<path d="M26.9895 13.0279C27.1376 13.026 27.2846 13.0533 27.422 13.1083C27.5595 13.1634 27.6847 13.245 27.7906 13.3485C27.8965 13.452 27.9808 13.5754 28.0389 13.7116C28.0969 13.8479 28.1276 13.9942 28.1289 14.1422L28.1456 15.8226C28.1475 15.9707 28.1202 16.1177 28.0651 16.2551C28.0101 16.3926 27.9285 16.5178 27.825 16.6237C27.7214 16.7296 27.598 16.8139 27.4618 16.872C27.3256 16.93 27.1793 16.9606 27.0312 16.962L19.5322 17.0446L21.6335 21.6229C21.6402 21.6294 21.6423 21.642 21.6464 21.6526C21.7575 21.9217 21.7869 22.2176 21.731 22.5034C21.6751 22.7892 21.5364 23.0522 21.3321 23.2597L21.2804 23.3127C21.0588 23.5208 20.7787 23.6559 20.4779 23.6996C20.1771 23.7434 19.8702 23.6938 19.5985 23.5574L5.44308 16.5673C5.19662 16.4439 4.98892 16.255 4.84277 16.0213C4.69663 15.7877 4.6177 15.5182 4.61464 15.2426C4.61158 14.967 4.68451 14.6959 4.82543 14.459C4.96635 14.2222 5.1698 14.0287 5.41346 13.8999L19.4102 6.59718C19.6793 6.45922 19.9839 6.40583 20.2839 6.44404C20.584 6.48225 20.8654 6.61026 21.0914 6.81128C21.3174 7.0123 21.4773 7.27694 21.5502 7.57047C21.6231 7.864 21.6056 8.17272 21.4999 8.45611L21.4876 8.48607L19.4905 13.1118L26.9895 13.0279ZM8.18379 10.9601C8.32287 10.8179 8.39976 10.6263 8.39755 10.4274C8.39535 10.2285 8.31421 10.0386 8.17201 9.8995L7.63582 9.37509C7.49362 9.23601 7.30199 9.15912 7.10309 9.16133C6.90419 9.16353 6.71431 9.24466 6.57523 9.38687C6.43615 9.52908 6.35925 9.72071 6.36146 9.91961C6.36367 10.1185 6.4448 10.3084 6.58701 10.4475L7.12319 10.9719C7.2654 11.111 7.45703 11.1879 7.65593 11.1856C7.85483 11.1834 8.0447 11.1023 8.18379 10.9601ZM7.76536 21.0416L8.28977 20.5055C8.42885 20.3632 8.50575 20.1716 8.50354 19.9727C8.50133 19.7738 8.4202 19.5839 8.278 19.4449C8.13579 19.3058 7.94416 19.2289 7.74526 19.2311C7.54636 19.2333 7.35648 19.3144 7.2174 19.4566L6.69299 19.9928C6.55391 20.135 6.47702 20.3267 6.47922 20.5256C6.48143 20.7245 6.56256 20.9143 6.70477 21.0534C6.84697 21.1925 7.03861 21.2694 7.23751 21.2672C7.43641 21.265 7.62628 21.1838 7.76536 21.0416ZM10.5266 9.52464C10.6198 9.4925 10.7058 9.4423 10.7795 9.37691C10.8533 9.31153 10.9134 9.23224 10.9565 9.14359C10.9996 9.05494 11.0248 8.95867 11.0307 8.86027C11.0366 8.76187 11.023 8.66328 10.9907 8.57014L10.4428 6.98514C10.3778 6.79711 10.2408 6.64258 10.0619 6.55555C9.88307 6.46852 9.67694 6.45611 9.48891 6.52105C9.30088 6.586 9.14636 6.72298 9.05932 6.90186C8.97229 7.08074 8.95988 7.28687 9.02483 7.47489L9.57279 9.0599C9.60487 9.15307 9.655 9.239 9.72031 9.31278C9.78562 9.38657 9.86483 9.44676 9.95341 9.48992C10.042 9.53308 10.1382 9.55836 10.2366 9.56432C10.3349 9.57028 10.4335 9.5568 10.5266 9.52464ZM9.70885 21.3137L9.19622 22.9105C9.13546 23.0999 9.15244 23.3058 9.24343 23.4827C9.33441 23.6596 9.49194 23.7931 9.68137 23.8538C9.87079 23.9146 10.0766 23.8976 10.2535 23.8066C10.4304 23.7156 10.5639 23.5581 10.6247 23.3687L11.1373 21.7719C11.1674 21.6781 11.1787 21.5793 11.1706 21.4811C11.1625 21.383 11.1351 21.2874 11.0901 21.1998C11.045 21.1122 10.9832 21.0343 10.908 20.9706C10.8329 20.9069 10.7459 20.8587 10.6521 20.8286C10.5584 20.7985 10.4596 20.7872 10.3614 20.7953C10.2632 20.8034 10.1676 20.8308 10.08 20.8758C9.99243 20.9209 9.91457 20.9827 9.85088 21.0579C9.78719 21.133 9.73893 21.22 9.70885 21.3137Z" fill="#F0F0F0"/>
</g>
</g>
<defs>
<filter id="filter0_d_486_555" x="-3.38525" y="-0.567871" width="39.5308" height="33.4575" filterUnits="userSpaceOnUse" color-interpolation-filters="sRGB">
<feFlood flood-opacity="0" result="BackgroundImageFix"/>
<feColorMatrix in="SourceAlpha" type="matrix" values="0 0 0 0 0 0 0 0 0 0 0 0 0 0 0 0 0 0 127 0" result="hardAlpha"/>
<feOffset dy="1"/>
<feGaussianBlur stdDeviation="4"/>
<feComposite in2="hardAlpha" operator="out"/>
<feColorMatrix type="matrix" values="0 0 0 0 0.486275 0 0 0 0 0.54902 0 0 0 0 1 0 0 0 1 0"/>
<feBlend mode="normal" in2="BackgroundImageFix" result="effect1_dropShadow_486_555"/>
<feBlend mode="normal" in="SourceGraphic" in2="effect1_dropShadow_486_555" result="shape"/>
</filter>
<clipPath id="clip0_486_555">
<rect width="30.2519" height="30.2519" fill="white"/>
</clipPath>
</defs>
</svg>
